<?xml version="1.0" standalone="no"?>
<!DOCTYPE svg PUBLIC "-//W3C//DTD SVG 20010904//EN"
 "http://www.w3.org/TR/2001/REC-SVG-20010904/DTD/svg10.dtd">
<svg version="1.0" xmlns="http://www.w3.org/2000/svg"
 width="48.000000pt" height="48.000000pt" viewBox="0 0 48.000000 48.000000"
 preserveAspectRatio="xMidYMid meet">

<g transform="translate(0.000000,48.000000) scale(0.100000,-0.100000)"
fill="#000000" stroke="none">
<path d="M135 410 c-3 -5 -15 -10 -26 -10 -10 0 -19 -4 -19 -10 0 -5 -7 -10
-15 -10 -18 0 -29 -41 -22 -80 4 -16 24 -53 47 -82 22 -29 40 -60 40 -69 0 -9
3 -19 8 -23 4 -4 12 -26 17 -49 10 -37 15 -42 42 -45 27 -3 34 2 47 27 9 16
16 36 16 43 0 8 22 40 49 72 38 44 51 70 60 113 9 47 9 60 -4 80 -13 20 -24
23 -72 23 -38 0 -62 -5 -74 -16 -17 -15 -20 -14 -49 15 -35 35 -36 35 -45 21z"/>
</g>
</svg>
