<?xml version="1.0" standalone="no"?>
<!DOCTYPE svg PUBLIC "-//W3C//DTD SVG 20010904//EN"
 "http://www.w3.org/TR/2001/REC-SVG-20010904/DTD/svg10.dtd">
<svg version="1.0" xmlns="http://www.w3.org/2000/svg"
 width="48.000000pt" height="48.000000pt" viewBox="0 0 48.000000 48.000000"
 preserveAspectRatio="xMidYMid meet">

<g transform="translate(0.000000,48.000000) scale(0.100000,-0.100000)"
fill="#000000" stroke="none">
<path d="M292 398 c-7 -7 -12 -22 -12 -34 0 -16 -12 -29 -40 -45 -22 -13 -40
-26 -40 -30 0 -11 -39 -18 -46 -8 -8 13 -48 11 -62 -3 -27 -27 -7 -78 31 -78
11 0 36 -13 56 -28 20 -16 51 -37 69 -48 17 -10 32 -25 32 -34 0 -35 52 -54
78 -28 15 15 15 51 0 66 -7 7 -27 12 -45 12 -18 0 -33 5 -33 10 0 6 -6 10 -13
10 -16 0 -97 58 -97 70 0 4 12 13 28 19 15 6 45 24 67 41 22 16 49 29 61 30
26 0 44 18 44 45 0 27 -18 45 -45 45 -12 0 -26 -5 -33 -12z"/>
</g>
</svg>
